<svg width="24" height="24" viewBox="0 0 24 24" fill="none" xmlns="http://www.w3.org/2000/svg">
<path fill-rule="evenodd" clip-rule="evenodd" d="M18.6711 3.20803C18.9576 3.16026 19.251 3.17544 19.531 3.25253C19.811 3.32963 20.0708 3.46677 20.2925 3.65444C20.5141 3.8421 20.6922 4.07579 20.8144 4.33924C20.9366 4.6027 21 4.88961 21.0001 5.18003V17C20.9999 17.8805 20.7092 18.7364 20.173 19.4348C19.6369 20.1332 18.8853 20.6353 18.0347 20.863C17.1842 21.0908 16.2823 21.0315 15.4688 20.6944C14.6554 20.3574 13.9759 19.7613 13.5358 18.9987C13.0956 18.2362 12.9194 17.3497 13.0344 16.4767C13.1494 15.6037 13.5492 14.7931 14.1718 14.1705C14.7945 13.548 15.6051 13.1482 16.4781 13.0333C17.3511 12.9184 18.2376 13.0948 19.0001 13.535V9.18003L9.00009 10.847V18C9.00009 18.06 8.99509 18.118 8.98509 18.174C9.05688 18.943 8.87231 19.7141 8.46014 20.3673C8.04796 21.0204 7.43133 21.5189 6.70631 21.785C5.98129 22.0512 5.18861 22.07 4.45176 21.8386C3.7149 21.6073 3.07527 21.1387 2.63251 20.5059C2.18974 19.8731 1.96872 19.1116 2.00387 18.3401C2.03902 17.5686 2.32838 16.8303 2.82685 16.2404C3.32532 15.6505 4.00491 15.242 4.75975 15.0786C5.51459 14.9152 6.30228 15.0061 7.00009 15.337V6.84703C7.00003 6.37359 7.16793 5.91549 7.47391 5.55421C7.77988 5.19293 8.2041 4.95191 8.67109 4.87403L18.6711 3.20803ZM9.00009 8.82003L19.0001 7.15303V5.18003L9.00009 6.84703V8.82003Z" fill="#52180D"/>
</svg>
