<svg width="24" height="24" viewBox="0 0 24 24" fill="none" xmlns="http://www.w3.org/2000/svg">
<path d="M8.625 17.65C8.625 19.224 7.365 20.5 5.813 20.5C4.259 20.5 3 19.224 3 17.65C3 16.077 4.26 14.801 5.813 14.801C7.366 14.801 8.625 16.076 8.625 17.65ZM8.625 17.65V5.462C8.625 4.942 9.019 4.508 9.534 4.461L19.909 3.505C20.0479 3.49232 20.1878 3.5088 20.3199 3.55341C20.452 3.59801 20.5733 3.66975 20.6761 3.76401C20.7788 3.85827 20.8607 3.97298 20.9165 4.10076C20.9723 4.22854 21.0007 4.36658 21 4.506V16.51C21 18.083 19.74 19.36 18.188 19.36C16.634 19.36 15.375 18.083 15.375 16.51C15.375 14.937 16.635 13.66 18.188 13.66C19.741 13.66 21 14.938 21 16.512" stroke="#52180D" stroke-width="1.5" stroke-linecap="round" stroke-linejoin="round"/>
</svg>
