<svg width="24" height="24" viewBox="0 0 24 24" fill="none" xmlns="http://www.w3.org/2000/svg">
<path d="M10 10C12.2091 10 14 8.20914 14 6C14 3.79086 12.2091 2 10 2C7.79086 2 6 3.79086 6 6C6 8.20914 7.79086 10 10 10Z" stroke="#52180D" stroke-width="1.5"/>
<path d="M19 8.68994L18.481 9.23194C18.6206 9.36579 18.8066 9.44052 19 9.44052C19.1934 9.44052 19.3794 9.36579 19.519 9.23194L19 8.68994ZM18.486 11.7599C18.069 11.4529 17.608 11.0699 17.259 10.6669C16.891 10.2409 16.75 9.90994 16.75 9.69594H15.25C15.25 10.4659 15.691 11.1459 16.125 11.6479C16.578 12.1729 17.139 12.6319 17.599 12.9689L18.486 11.7599ZM16.75 9.69594C16.75 9.11994 17.013 8.86994 17.242 8.78994C17.492 8.70194 17.956 8.72994 18.482 9.23294L19.519 8.14994C18.694 7.35994 17.658 7.05394 16.746 7.37394C15.813 7.70094 15.25 8.59894 15.25 9.69594H16.75ZM20.4 12.9699C20.86 12.6329 21.422 12.1739 21.875 11.6499C22.309 11.1479 22.75 10.4669 22.75 9.69694H21.25C21.25 9.91094 21.109 10.2419 20.74 10.6679C20.392 11.0709 19.931 11.4539 19.514 11.7609L20.4 12.9699ZM22.75 9.69694C22.75 8.59994 22.188 7.70094 21.254 7.37394C20.342 7.05394 19.306 7.35994 18.481 8.14994L19.519 9.23194C20.044 8.72894 20.508 8.70194 20.759 8.78994C20.987 8.86994 21.25 9.11994 21.25 9.69694H22.75ZM17.6 12.9699C17.968 13.2399 18.382 13.5779 19 13.5779V12.0779C18.976 12.0779 18.96 12.0779 18.906 12.0479C18.7601 11.9613 18.6208 11.8654 18.487 11.7609L17.6 12.9699ZM19.513 11.7599C19.3793 11.8651 19.239 11.9616 19.093 12.0489C19.04 12.0779 19.024 12.0779 19 12.0779V13.5779C19.618 13.5779 20.032 13.2409 20.4 12.9699L19.513 11.7599Z" fill="#52180D"/>
<path d="M17.998 18C17.9993 17.836 18 17.6693 18 17.5C18 15.015 14.418 13 10 13C5.582 13 2 15.015 2 17.5C2 19.985 2 22 10 22C12.231 22 13.84 21.843 15 21.563" stroke="#52180D" stroke-width="1.5" stroke-linecap="round"/>
</svg>
