<svg width="33" height="28" viewBox="0 0 33 28" fill="none" xmlns="http://www.w3.org/2000/svg">
<path d="M25.8196 0.157715C32.1053 3.30057 32.1053 14.3006 25.8196 17.4434C35.2482 14.3006 35.2482 3.30057 25.8196 0.157715ZM23.4625 0.943429C26.6053 3.44018 26.6053 14.213 23.4625 16.7098C29.7482 14.213 29.7482 3.44018 23.4625 0.943429Z" fill="#591A0E"/>
<path d="M20.8151 9.97333C20.1977 10.247 19.5427 10.4266 18.8721 10.506C19.5764 10.0818 20.1042 9.4179 20.3586 8.63605C19.694 9.02854 18.9677 9.30562 18.2105 9.45555C17.7007 8.91264 17.0261 8.55301 16.2912 8.43239C15.5563 8.31177 14.8021 8.43689 14.1455 8.78837C13.4889 9.13984 12.9666 9.69805 12.6594 10.3765C12.3523 11.0549 12.2774 11.8158 12.4465 12.541C11.1014 12.4732 9.78564 12.1234 8.58447 11.5143C7.38331 10.9052 6.3236 10.0504 5.47407 9.00533C5.17364 9.52187 5.01557 10.1089 5.016 10.7064C5.01535 11.2633 5.15237 11.8118 5.41488 12.3029C5.67739 12.7941 6.05724 13.2127 6.52064 13.5216C5.98358 13.5046 5.45833 13.3596 4.9885 13.0989V13.1405C4.98814 13.9218 5.25827 14.6792 5.75298 15.2839C6.24769 15.8886 6.93648 16.3034 7.70236 16.4578C7.41897 16.5354 7.12197 16.5739 6.81136 16.5733C6.59345 16.5744 6.38131 16.5545 6.17493 16.5136C6.39104 17.1858 6.81182 17.7736 7.37844 18.1948C7.94505 18.616 8.62916 18.8496 9.33507 18.8629C7.9151 19.9706 6.11536 20.4732 4.32693 20.2615C5.87292 21.2576 7.67354 21.7863 9.51264 21.7842C15.7355 21.7842 19.1361 16.6283 19.1361 12.1592C19.1366 12.0125 19.134 11.8666 19.1282 11.7215C19.7912 11.2457 20.3624 10.6536 20.8144 9.97412" fill="#591A0E"/>
</svg>
