<svg width="20" height="21" viewBox="0 0 20 21" fill="none" xmlns="http://www.w3.org/2000/svg">
<path d="M16.1808 6.00472C17.0392 6.91638 17.5 7.93888 17.5 9.59638C17.5 12.5131 15.4533 15.1272 12.475 16.4197L11.7308 15.2714C14.51 13.7681 15.0533 11.8172 15.2708 10.5872C14.8233 10.8189 14.2375 10.8997 13.6625 10.8464C12.1592 10.7072 10.9742 9.47305 10.9742 7.93888C10.9742 7.16534 11.2815 6.42347 11.8284 5.87649C12.3754 5.32951 13.1173 5.02222 13.8908 5.02222C14.785 5.02222 15.6408 5.43055 16.1808 6.00472ZM7.8475 6.00472C8.70583 6.91638 9.16666 7.93888 9.16666 9.59638C9.16666 12.5131 7.12 15.1272 4.14166 16.4197L3.3975 15.2714C6.17666 13.7681 6.72 11.8172 6.93666 10.5872C6.48916 10.8189 5.90333 10.8997 5.32916 10.8464C3.82583 10.7081 2.64166 9.47388 2.64166 7.93888C2.64166 7.16534 2.94895 6.42347 3.49593 5.87649C4.04292 5.32951 4.78478 5.02222 5.55833 5.02222C6.4525 5.02222 7.30833 5.43055 7.84833 6.00472" fill="#591A0E"/>
</svg>
