<svg width="29" height="29" viewBox="0 0 29 29" fill="none" xmlns="http://www.w3.org/2000/svg">
<path d="M14.5 5.16675C15.795 5.16675 16.8333 6.20508 16.8333 7.50008C16.8333 8.79508 15.795 9.83341 14.5 9.83341C13.205 9.83341 12.1667 8.79508 12.1667 7.50008C12.1667 6.20508 13.2167 5.16675 14.5 5.16675ZM25 19.1667V16.8334C22.3867 16.8334 20.1467 15.7134 18.4667 13.7067L16.9033 11.8401C16.6863 11.577 16.4136 11.3652 16.105 11.2199C15.7964 11.0747 15.4594 10.9996 15.1183 11.0001H13.9167C13.205 11.0001 12.5517 11.3034 12.1083 11.8401L10.545 13.7067C8.85333 15.7134 6.61333 16.8334 4 16.8334V19.1667C7.23167 19.1667 10.055 17.8017 12.1667 15.3751V18.0001L7.64 19.8084C6.85833 20.1234 6.33333 20.9167 6.33333 21.7451C6.33333 22.9001 7.26667 23.8334 8.42167 23.8334H11V23.2501C11 22.4765 11.3073 21.7347 11.8543 21.1877C12.4013 20.6407 13.1431 20.3334 13.9167 20.3334H17.4167C17.7433 20.3334 18 20.5901 18 20.9167C18 21.2434 17.7433 21.5001 17.4167 21.5001H13.9167C12.9483 21.5001 12.1667 22.2817 12.1667 23.2501V23.8334H20.5783C21.7333 23.8334 22.6667 22.9001 22.6667 21.7451C22.6667 20.9167 22.1417 20.1234 21.36 19.8084L16.8333 18.0001V15.3751C18.945 17.8017 21.7683 19.1667 25 19.1667Z" fill="#591A0E"/>
</svg>
