<svg width="24" height="25" viewBox="0 0 24 25" fill="none" xmlns="http://www.w3.org/2000/svg">
<path d="M3 10.75C3 6.979 3 5.093 4.172 3.922C5.344 2.751 7.229 2.75 11 2.75H13C16.771 2.75 18.657 2.75 19.828 3.922C20.999 5.094 21 6.979 21 10.75V14.75C21 18.521 21 20.407 19.828 21.578C18.656 22.749 16.771 22.75 13 22.75H11C7.229 22.75 5.343 22.75 4.172 21.578C3.001 20.406 3 18.521 3 14.75V10.75Z" stroke="#591A0E" stroke-width="1.5"/>
<path d="M12 6.75V8.75M12 8.75V10.75M12 8.75H10M12 8.75H14M8 14.75H16M9 18.75H15" stroke="#591A0E" stroke-width="1.5" stroke-linecap="round"/>
</svg>
