<svg width="24" height="25" viewBox="0 0 24 25" fill="none" xmlns="http://www.w3.org/2000/svg">
<path d="M6.18 21.256C5.73333 21.314 5.334 21.2073 4.982 20.936C4.63 20.6646 4.427 20.3053 4.373 19.858L3.144 10.145C3.09067 9.69697 3.20167 9.29163 3.477 8.92896C3.75233 8.5663 4.11367 8.3643 4.561 8.32296L5.538 8.24996V15.285C5.538 16.2823 5.89133 17.1343 6.598 17.841C7.30467 18.5476 8.15667 18.901 9.154 18.901H18.339C18.341 19.1343 18.2593 19.339 18.094 19.515C17.9287 19.691 17.7253 19.7976 17.484 19.835L6.18 21.256ZM9.154 16.901C8.694 16.901 8.30967 16.7466 8.001 16.438C7.69234 16.1293 7.53833 15.745 7.539 15.285V5.05497C7.539 4.5943 7.693 4.20996 8.001 3.90196C8.309 3.59396 8.69334 3.43963 9.154 3.43896H19.384C19.8447 3.43896 20.229 3.5933 20.537 3.90196C20.845 4.21063 20.9993 4.59496 21 5.05497V15.285C21 15.745 20.8457 16.1293 20.537 16.438C20.2283 16.7466 19.844 16.901 19.384 16.901H9.154ZM12.744 12.389L14.269 11.468L15.794 12.389C15.8813 12.4303 15.9613 12.427 16.034 12.379C16.106 12.3323 16.1253 12.2633 16.092 12.172L15.675 10.435L17.014 9.27796C17.084 9.21996 17.1067 9.15163 17.082 9.07296C17.0573 8.9943 16.9993 8.94663 16.908 8.92997L15.146 8.77396L14.456 7.14296C14.4227 7.05563 14.3603 7.01196 14.269 7.01196C14.1777 7.01196 14.1157 7.0553 14.083 7.14196L13.393 8.77396L11.631 8.92896C11.5397 8.9463 11.4817 8.9943 11.457 9.07296C11.4323 9.15163 11.455 9.21996 11.525 9.27796L12.864 10.435L12.446 12.172C12.4127 12.2626 12.4323 12.332 12.505 12.38C12.5777 12.4266 12.6567 12.4296 12.744 12.389Z" fill="#591A0E"/>
</svg>
