<svg width="33" height="20" viewBox="0 0 33 20" fill="none" xmlns="http://www.w3.org/2000/svg">
<path d="M21 10.6904L17.95 9.56043C17.69 8.41043 17.04 7.75043 17.04 7.75043C16.6508 7.36069 16.1887 7.05149 15.6799 6.84053C15.1711 6.62957 14.6258 6.52098 14.075 6.52098C13.5242 6.52098 12.9789 6.62957 12.4701 6.84053C11.9613 7.05149 11.4992 7.36069 11.11 7.75043L9.63 9.23043L3 2.19043C2 6.19043 3 10.1904 5.45 13.4104L0 18.6904C0 18.6904 8.89 20.6904 14.07 16.6404C16.83 14.4804 17.45 13.2204 17.84 11.8904L21 10.6904ZM15.71 10.9104C15.32 11.3004 14.68 11.3004 14.29 10.9104C14.1973 10.8179 14.1237 10.708 14.0736 10.5871C14.0234 10.4661 13.9976 10.3364 13.9976 10.2054C13.9976 10.0745 14.0234 9.94478 14.0736 9.82381C14.1237 9.70283 14.1973 9.59294 14.29 9.50043C14.68 9.11043 15.32 9.11043 15.71 9.50043C16.1 9.89043 16.1 10.5204 15.71 10.9104Z" fill="#591A0E"/>
<path d="M32.375 0.81543V7.58626C32.375 8.08907 32.1753 8.57128 31.8197 8.92682C31.4642 9.28236 30.982 9.4821 30.4792 9.4821C29.9764 9.4821 29.4942 9.28236 29.1386 8.92682C28.7831 8.57128 28.5833 8.08907 28.5833 7.58626C28.5833 7.08346 28.7831 6.60124 29.1386 6.24571C29.4942 5.89017 29.9764 5.69043 30.4792 5.69043C30.7717 5.69043 31.0479 5.75543 31.2917 5.8746V2.69501L25.875 3.84876V8.6696C25.875 9.1724 25.6753 9.65462 25.3197 10.0102C24.9642 10.3657 24.482 10.5654 23.9792 10.5654C23.4764 10.5654 22.9942 10.3657 22.6386 10.0102C22.2831 9.65462 22.0833 9.1724 22.0833 8.6696C22.0833 8.16679 22.2831 7.68458 22.6386 7.32904C22.9942 6.9735 23.4764 6.77376 23.9792 6.77376C24.2717 6.77376 24.5479 6.83876 24.7917 6.95793V2.44043L32.375 0.81543Z" fill="#591A0E"/>
</svg>
