<svg width="20" height="21" viewBox="0 0 20 21" fill="none" xmlns="http://www.w3.org/2000/svg">
<path d="M9.707 7.73184C9.5184 7.54969 9.2658 7.44889 9.0036 7.45117C8.7414 7.45345 8.49059 7.55862 8.30518 7.74402C8.11977 7.92943 8.0146 8.18025 8.01233 8.44244C8.01005 8.70464 8.11084 8.95724 8.293 9.14584L11.293 12.1458C11.4805 12.3333 11.7348 12.4386 12 12.4386C12.2652 12.4386 12.5195 12.3333 12.707 12.1458L15.707 9.14584C15.8892 8.95724 15.99 8.70464 15.9877 8.44244C15.9854 8.18025 15.8802 7.92943 15.6948 7.74402C15.5094 7.55862 15.2586 7.45345 14.9964 7.45117C14.7342 7.44889 14.4816 7.54969 14.293 7.73184L13 9.02484V5.43884H16C16.5304 5.43884 17.0391 5.64956 17.4142 6.02463C17.7893 6.3997 18 6.90841 18 7.43884V12.4388C18 12.9693 17.7893 13.478 17.4142 13.8531C17.0391 14.2281 16.5304 14.4388 16 14.4388H8C7.46957 14.4388 6.96086 14.2281 6.58579 13.8531C6.21071 13.478 6 12.9693 6 12.4388V7.43884C6 6.90841 6.21071 6.3997 6.58579 6.02463C6.96086 5.64956 7.46957 5.43884 8 5.43884H11V9.02484L9.707 7.73184ZM11 3.43884C11 3.17363 11.1054 2.91927 11.2929 2.73174C11.4804 2.5442 11.7348 2.43884 12 2.43884C12.2652 2.43884 12.5196 2.5442 12.7071 2.73174C12.8946 2.91927 13 3.17363 13 3.43884V5.43884H11V3.43884Z" fill="#591A0E"/>
<path d="M4 9.43884C3.46957 9.43884 2.96086 9.64956 2.58579 10.0246C2.21071 10.3997 2 10.9084 2 11.4388V16.4388C2 16.9693 2.21071 17.478 2.58579 17.8531C2.96086 18.2281 3.46957 18.4388 4 18.4388H12C12.5304 18.4388 13.0391 18.2281 13.4142 17.8531C13.7893 17.478 14 16.9693 14 16.4388H4V9.43884Z" fill="#591A0E"/>
</svg>
