<svg width="30" height="25" viewBox="0 0 30 25" fill="none" xmlns="http://www.w3.org/2000/svg">
<path d="M25.7273 1.72729V3.18184M22.0909 1.72729V3.18184M18.4545 1.72729V3.18184M19.1818 11.1818H22.0909M19.1818 7.54548H25M15.9091 11.9091V6.8182C15.9091 4.76148 15.9091 3.73239 16.5483 3.09384C17.1869 2.45457 18.216 2.45457 20.2727 2.45457H23.9091C25.9658 2.45457 26.9949 2.45457 27.6334 3.09384C28.2727 3.73239 28.2727 4.76148 28.2727 6.8182V9.00002C28.2727 12.4284 28.2727 14.1426 27.2073 15.2073C26.1433 16.2727 24.4291 16.2727 21 16.2727H20.2727C18.216 16.2727 17.1869 16.2727 16.5483 15.6335C15.9091 14.9949 15.9091 13.9658 15.9091 11.9091Z" stroke="#591A0E" stroke-width="1.63636" stroke-linecap="round" stroke-linejoin="round"/>
<path d="M28.2727 10.8181C28.2727 11.0569 28.2257 11.2933 28.1343 11.5139C28.043 11.7345 27.909 11.9349 27.7402 12.1038C27.5714 12.2726 27.3709 12.4065 27.1503 12.4979C26.9297 12.5893 26.6933 12.6363 26.4545 12.6363C26.0909 12.6363 25.6633 12.573 25.3105 12.6676C25.1564 12.7089 25.0158 12.79 24.9029 12.9029C24.7901 13.0157 24.7089 13.1563 24.6676 13.3105C24.5731 13.6632 24.6364 14.0916 24.6364 14.4545C24.6364 14.9367 24.4448 15.3992 24.1038 15.7401C23.7629 16.0811 23.3004 16.2727 22.8182 16.2727" stroke="#591A0E" stroke-width="1.63636" stroke-linecap="round" stroke-linejoin="round"/>
<path d="M9.72728 11.182C9.72728 11.6642 9.53572 12.1266 9.19474 12.4676C8.85377 12.8086 8.39131 13.0001 7.90909 13.0001C7.42688 13.0001 6.96442 12.8086 6.62344 12.4676C6.28247 12.1266 6.09091 11.6642 6.09091 11.182C6.09091 10.6997 6.28247 10.2373 6.62344 9.8963C6.96442 9.55533 7.42688 9.36377 7.90909 9.36377C8.39131 9.36377 8.85377 9.55533 9.19474 9.8963C9.53572 10.2373 9.72728 10.6997 9.72728 11.182Z" stroke="#591A0E" stroke-width="1.63636"/>
<path d="M14.4545 20.273L13.6124 19.9894C13.4472 19.9336 13.2902 19.8561 13.1455 19.7588L13.072 19.7086C12.8255 19.5418 12.6237 19.3171 12.4843 19.0541C12.345 18.7911 12.2723 18.4979 12.2727 18.2003C12.2727 16.4279 11.0044 14.9152 9.27418 14.6235L8.62691 14.5145C8.27272 14.4548 7.54545 14.4548 7.19127 14.5145L6.54327 14.6235C4.81309 14.9152 3.54545 16.4279 3.54545 18.2003C3.54586 18.4979 3.4732 18.7911 3.33384 19.0541C3.19448 19.3171 2.99269 19.5418 2.74618 19.7086L2.67345 19.7588C2.52751 19.8563 2.37163 19.9331 2.20581 19.9894L1.36363 20.273" stroke="#591A0E" stroke-width="1.63636" stroke-linecap="round" stroke-linejoin="round"/>
<path d="M6.0909 19.5457L5.41817 20.4424C5.31126 20.5849 5.25817 20.6569 5.19708 20.7195C5.04802 20.8753 4.86618 20.996 4.66471 21.0729C4.58326 21.1042 4.49744 21.126 4.3229 21.1697L3.0189 21.4955C2.72919 21.5684 2.4761 21.7447 2.30723 21.9911C2.13835 22.2376 2.06532 22.5372 2.10185 22.8337C2.13839 23.1302 2.28199 23.4032 2.50564 23.6012C2.72929 23.7993 3.0176 23.9089 3.31635 23.9093H3.81308C5.05599 23.9093 6.26399 23.5064 7.25817 22.7609L8.63635 21.7275M9.72726 19.5457L10.256 20.2504C10.5054 20.5835 10.6305 20.75 10.7927 20.8729C10.8412 20.9098 10.8921 20.9437 10.9454 20.9747C11.1214 21.0766 11.3236 21.1267 11.7273 21.2278L12.7993 21.4955C13.089 21.5684 13.3421 21.7447 13.5109 21.9911C13.6798 22.2376 13.7528 22.5372 13.7163 22.8337C13.6798 23.1302 13.5362 23.4032 13.3125 23.6012C13.0889 23.7993 12.8006 23.9089 12.5018 23.9093H11.8204C11.4109 23.9093 11.2065 23.9093 11.0036 23.8977C10.4048 23.8641 9.81242 23.7566 9.23999 23.5777C9.04581 23.5173 8.85453 23.446 8.47199 23.302L7.18181 22.8184" stroke="#591A0E" stroke-width="1.63636" stroke-linecap="round" stroke-linejoin="round"/>
</svg>
