<svg width="20" height="19" viewBox="0 0 20 19" fill="none" xmlns="http://www.w3.org/2000/svg">
<path d="M11.3896 1.04026C11.4573 0.976767 11.5388 0.929849 11.6277 0.903197C11.7166 0.876544 11.8105 0.870883 11.902 0.88666C16.1116 1.61506 19.594 5.28706 19.594 9.75466C19.594 12.1416 18.6458 14.4308 16.958 16.1186C15.2701 17.8064 12.981 18.7547 10.594 18.7547C7.558 18.7547 4.546 17.2463 2.908 14.8979C2.84742 14.8113 2.8108 14.7102 2.80183 14.6049C2.79286 14.4996 2.81187 14.3938 2.85693 14.2982C2.90199 14.2025 2.97151 14.1205 3.05844 14.0604C3.14538 14.0003 3.24665 13.9643 3.352 13.9559C5.17 13.8107 7.36 12.8375 8.98 10.8467C10.5904 8.86786 11.6704 5.84386 11.2036 1.54186C11.1937 1.44956 11.2053 1.35622 11.2376 1.26918C11.2699 1.18214 11.3219 1.10378 11.3896 1.04026ZM2.2 9.75346C2.67739 9.75346 3.13523 9.56382 3.47279 9.22625C3.81036 8.88869 4 8.43085 4 7.95346V3.62146L7.6 2.72146V5.05546C7.23979 4.92811 6.84841 4.91867 6.48248 5.02852C6.11656 5.13836 5.79507 5.36179 5.56456 5.66647C5.33404 5.97115 5.20645 6.34127 5.20024 6.72328C5.19403 7.10528 5.30954 7.47936 5.53003 7.79136C5.75053 8.10337 6.06459 8.33712 6.42675 8.4588C6.78892 8.58047 7.1804 8.58375 7.54456 8.46817C7.90871 8.35258 8.22664 8.12413 8.45234 7.81586C8.67804 7.5076 8.7998 7.13552 8.8 6.75346V1.95346C8.80016 1.86222 8.77951 1.77215 8.73961 1.69009C8.69972 1.60803 8.64164 1.53615 8.56979 1.47992C8.49794 1.42369 8.4142 1.38459 8.32497 1.36558C8.23573 1.34658 8.14333 1.34818 8.0548 1.37026L3.2548 2.57026C3.12474 2.6027 3.00929 2.67775 2.92686 2.78346C2.84443 2.88916 2.79977 3.01942 2.8 3.15346V6.25666C2.55283 6.16915 2.28952 6.1367 2.0285 6.16158C1.76748 6.18646 1.51504 6.26806 1.28885 6.40068C1.06266 6.5333 0.868169 6.71374 0.718991 6.92937C0.569813 7.14501 0.469546 7.39063 0.425203 7.64906C0.380861 7.90748 0.393513 8.17248 0.462276 8.42551C0.531039 8.67854 0.654252 8.91349 0.823296 9.11392C0.992341 9.31436 1.20313 9.47545 1.44093 9.58592C1.67873 9.69639 1.9378 9.75357 2.2 9.75346Z" fill="#591A0E"/>
</svg>
