<svg width="20" height="23" viewBox="0 0 20 23" fill="none" xmlns="http://www.w3.org/2000/svg">
<path d="M9 0.37793C7.67392 0.37793 6.40215 0.904714 5.46447 1.8424C4.52678 2.78008 4 4.05185 4 5.37793C4 6.70401 4.52678 7.97578 5.46447 8.91346C6.40215 9.85115 7.67392 10.3779 9 10.3779C10.3261 10.3779 11.5979 9.85115 12.5355 8.91346C13.4732 7.97578 14 6.70401 14 5.37793C14 4.05185 13.4732 2.78008 12.5355 1.8424C11.5979 0.904714 10.3261 0.37793 9 0.37793ZM9 11.3779C6.605 11.3779 4.425 12.0719 2.822 13.0499C2.022 13.5379 1.338 14.1139 0.844 14.7399C0.358 15.3539 0 16.0909 0 16.8779C0 17.7229 0.411 18.3889 1.003 18.8639C1.563 19.3139 2.302 19.6119 3.087 19.8199C4.665 20.2369 6.771 20.3779 9 20.3779L9.685 20.3729C9.85248 20.3706 10.0167 20.3263 10.1626 20.244C10.3085 20.1617 10.4313 20.0441 10.5199 19.902C10.6085 19.7598 10.66 19.5977 10.6696 19.4305C10.6792 19.2633 10.6467 19.0963 10.575 18.9449C10.1958 18.1423 9.99942 17.2656 10 16.3779C10 15.1259 10.383 13.9659 11.037 13.0049C11.1342 12.8621 11.1928 12.6966 11.207 12.5244C11.2212 12.3522 11.1905 12.1793 11.118 12.0225C11.0455 11.8657 10.9336 11.7304 10.7932 11.6297C10.6528 11.529 10.4888 11.4664 10.317 11.4479C9.88633 11.4013 9.44733 11.3779 9 11.3779ZM13.5 13.0689C14.253 12.6299 15.179 12.5729 16 13.0229C16.821 12.5729 17.747 12.6299 18.5 13.0689C19.416 13.6029 20.026 14.6589 20 15.8569C19.964 17.4269 18.752 18.6549 17.114 19.6279C16.771 19.8309 16.411 20.0449 16 20.0449C15.59 20.0449 15.229 19.8309 14.886 19.6279C13.248 18.6549 12.036 17.4259 12.001 15.8579C11.974 14.6599 12.584 13.6029 13.5 13.0689Z" fill="#591A0E"/>
</svg>
