<svg width="20" height="16" viewBox="0 0 20 16" fill="none" xmlns="http://www.w3.org/2000/svg">
<path d="M8.875 2.31543V10.5654C8.87376 11.7585 8.39925 12.9024 7.55561 13.746C6.71196 14.5897 5.56809 15.0642 4.375 15.0654C4.17609 15.0654 3.98532 14.9864 3.84467 14.8458C3.70402 14.7051 3.625 14.5143 3.625 14.3154C3.625 14.1165 3.70402 13.9258 3.84467 13.7851C3.98532 13.6444 4.17609 13.5654 4.375 13.5654C5.17065 13.5654 5.93371 13.2494 6.49632 12.6867C7.05893 12.1241 7.375 11.3611 7.375 10.5654V9.81543H1.75C1.35218 9.81543 0.970644 9.65739 0.68934 9.37609C0.408035 9.09478 0.25 8.71325 0.25 8.31543V2.31543C0.25 1.9176 0.408035 1.53607 0.68934 1.25477C0.970644 0.973465 1.35218 0.81543 1.75 0.81543H7.375C7.77282 0.81543 8.15435 0.973465 8.43566 1.25477C8.71696 1.53607 8.875 1.9176 8.875 2.31543ZM18.25 0.81543H12.625C12.2272 0.81543 11.8456 0.973465 11.5643 1.25477C11.283 1.53607 11.125 1.9176 11.125 2.31543V8.31543C11.125 8.71325 11.283 9.09478 11.5643 9.37609C11.8456 9.65739 12.2272 9.81543 12.625 9.81543H18.25V10.5654C18.25 11.3611 17.9339 12.1241 17.3713 12.6867C16.8087 13.2494 16.0456 13.5654 15.25 13.5654C15.0511 13.5654 14.8603 13.6444 14.7197 13.7851C14.579 13.9258 14.5 14.1165 14.5 14.3154C14.5 14.5143 14.579 14.7051 14.7197 14.8458C14.8603 14.9864 15.0511 15.0654 15.25 15.0654C16.4431 15.0642 17.587 14.5897 18.4306 13.746C19.2743 12.9024 19.7488 11.7585 19.75 10.5654V2.31543C19.75 1.9176 19.592 1.53607 19.3107 1.25477C19.0294 0.973465 18.6478 0.81543 18.25 0.81543Z" fill="#591A0E"/>
</svg>
