<svg width="20" height="21" viewBox="0 0 20 21" fill="none" xmlns="http://www.w3.org/2000/svg">
<path d="M15 6.3772C14.7167 6.3772 14.4793 6.2812 14.288 6.0892C14.0967 5.8972 14.0007 5.65986 14 5.3772C13.9993 5.09453 14.0953 4.8572 14.288 4.6652C14.4807 4.4732 14.718 4.3772 15 4.3772C15.282 4.3772 15.5197 4.4732 15.713 4.6652C15.9063 4.8572 16.002 5.09453 16 5.3772C15.998 5.65986 15.902 5.89753 15.712 6.0902C15.522 6.28286 15.2847 6.37853 15 6.3772ZM15.975 12.3772H8.025C7.80833 12.3772 7.65433 12.2855 7.563 12.1022C7.47167 11.9189 7.49233 11.7439 7.625 11.5772L9.3 9.3772C9.4 9.24386 9.53333 9.1772 9.7 9.1772C9.86667 9.1772 10 9.24386 10.1 9.3772L11.25 10.8772L13.15 8.4022C13.25 8.26886 13.3833 8.2022 13.55 8.2022C13.7167 8.2022 13.85 8.26886 13.95 8.4022L16.375 11.5772C16.5083 11.7439 16.5293 11.9189 16.438 12.1022C16.3467 12.2855 16.1923 12.3772 15.975 12.3772ZM2 20.3772C1.45 20.3772 0.979333 20.1815 0.588 19.7902C0.196667 19.3989 0.000666667 18.9279 0 18.3772V5.3772C0 5.09386 0.0960001 4.85653 0.288 4.6652C0.48 4.47386 0.717333 4.37786 1 4.3772C1.28267 4.37653 1.52033 4.47253 1.713 4.6652C1.90567 4.85786 2.00133 5.0952 2 5.3772V18.3772H15C15.2833 18.3772 15.521 18.4732 15.713 18.6652C15.905 18.8572 16.0007 19.0945 16 19.3772C15.9993 19.6599 15.9033 19.8975 15.712 20.0902C15.5207 20.2829 15.2833 20.3785 15 20.3772H2ZM4 2.3772C4 1.8272 4.196 1.35653 4.588 0.965197C4.98 0.573864 5.45067 0.377864 6 0.377197H10C10.2833 0.377197 10.521 0.473197 10.713 0.665197C10.905 0.857197 11.0007 1.09453 11 1.3772C10.9993 1.65986 10.9033 1.89753 10.712 2.0902C10.5207 2.28286 10.2833 2.37853 10 2.3772H6V6.7522C6 7.03553 5.904 7.2732 5.712 7.4652C5.52 7.6572 5.28267 7.75286 5 7.7522C4.71733 7.75153 4.48 7.65553 4.288 7.4642C4.096 7.27286 4 7.03586 4 6.7532V2.3772ZM6 16.3772C5.45 16.3772 4.97933 16.1815 4.588 15.7902C4.19667 15.3989 4.00067 14.9279 4 14.3772V10.7522C4 10.4689 4.096 10.2315 4.288 10.0402C4.48 9.84886 4.71733 9.75286 5 9.7522C5.28267 9.75153 5.52033 9.84753 5.713 10.0402C5.90567 10.2329 6.00133 10.4702 6 10.7522V14.3772H10C10.2833 14.3772 10.521 14.4732 10.713 14.6652C10.905 14.8572 11.0007 15.0945 11 15.3772C10.9993 15.6599 10.9033 15.8975 10.712 16.0902C10.5207 16.2829 10.2833 16.3785 10 16.3772H6ZM18 16.3772H14C13.7167 16.3772 13.4793 16.2812 13.288 16.0892C13.0967 15.8972 13.0007 15.6599 13 15.3772C12.9993 15.0945 13.0953 14.8572 13.288 14.6652C13.4807 14.4732 13.718 14.3772 14 14.3772H18V10.7522C18 10.4689 18.096 10.2315 18.288 10.0402C18.48 9.84886 18.7173 9.75286 19 9.7522C19.2827 9.75153 19.5203 9.84753 19.713 10.0402C19.9057 10.2329 20.0013 10.4702 20 10.7522V14.3772C20 14.9272 19.8043 15.3982 19.413 15.7902C19.0217 16.1822 18.5507 16.3779 18 16.3772ZM20 2.3772V6.7522C20 7.03553 19.904 7.2732 19.712 7.4652C19.52 7.6572 19.2827 7.75286 19 7.7522C18.7173 7.75153 18.48 7.65553 18.288 7.4642C18.096 7.27286 18 7.03586 18 6.7532V2.3772H14C13.7167 2.3772 13.4793 2.2812 13.288 2.0892C13.0967 1.8972 13.0007 1.65986 13 1.3772C12.9993 1.09453 13.0953 0.857197 13.288 0.665197C13.4807 0.473197 13.718 0.377197 14 0.377197H18C18.55 0.377197 19.021 0.573197 19.413 0.965197C19.805 1.3572 20.0007 1.82786 20 2.3772Z" fill="#591A0E"/>
</svg>
