<svg width="33" height="28" viewBox="0 0 33 28" fill="none" xmlns="http://www.w3.org/2000/svg">
<path d="M25.8195 0C32.1053 3.14286 32.1053 14.1429 25.8195 17.2857C35.2481 14.1429 35.2481 3.14286 25.8195 0ZM23.4624 0.785714C26.6053 3.28247 26.6053 14.0553 23.4624 16.5521C29.7481 14.0553 29.7481 3.28247 23.4624 0.785714Z" fill="#591A0E"/>
<path d="M20.8151 9.81562C20.1977 10.0893 19.5427 10.2689 18.872 10.3483C19.5764 9.9241 20.1042 9.26019 20.3586 8.47833C19.694 8.87082 18.9677 9.14791 18.2105 9.29783C17.7007 8.75492 17.0261 8.3953 16.2912 8.27468C15.5562 8.15406 14.8021 8.27918 14.1455 8.63065C13.4889 8.98213 12.9666 9.54033 12.6594 10.2188C12.3522 10.8972 12.2774 11.658 12.4465 12.3833C11.1014 12.3155 9.78562 11.9657 8.58445 11.3566C7.38329 10.7475 6.32357 9.89267 5.47405 8.84762C5.17361 9.36416 5.01555 9.95114 5.01598 10.5487C5.01532 11.1056 5.15235 11.654 5.41486 12.1452C5.67737 12.6364 6.05722 13.055 6.52062 13.3639C5.98356 13.3468 5.45831 13.2019 4.98848 12.9412V12.9828C4.98812 13.7641 5.25824 14.5214 5.75295 15.1262C6.24767 15.7309 6.93646 16.1457 7.70233 16.3001C7.41895 16.3776 7.12195 16.4161 6.81133 16.4156C6.59343 16.4167 6.38129 16.3968 6.1749 16.3559C6.39101 17.0281 6.8118 17.6158 7.37842 18.0371C7.94503 18.4583 8.62914 18.6919 9.33505 18.7052C7.91508 19.8129 6.11534 20.3155 4.3269 20.1038C5.8729 21.0999 7.67352 21.6286 9.51262 21.6265C15.7355 21.6265 19.136 16.4706 19.136 12.0015C19.1366 11.8548 19.134 11.7089 19.1282 11.5638C19.7911 11.088 20.3624 10.4959 20.8143 9.81641" fill="#591A0E"/>
</svg>
