<svg width="24" height="24" viewBox="0 0 24 24" fill="none" xmlns="http://www.w3.org/2000/svg">
<g clip-path="url(#clip0_114_441)">
<mask id="mask0_114_441" style="mask-type:luminance" maskUnits="userSpaceOnUse" x="0" y="0" width="24" height="24">
<path d="M0 0H24V24H0V0Z" fill="white"/>
</mask>
<g mask="url(#mask0_114_441)">
<path d="M13.4999 9.75H10.4999V12M10.4999 12H12.8999M10.4999 12V14.25H13.4999M5.2499 15V9M8.2499 9V15M5.9999 9C5.9999 9.75 7.4999 14.25 7.4999 15M14.9999 9V14.25M14.9999 14.25V15M14.9999 14.25C14.9999 12.8625 15.9794 11.484 16.7294 11.484C17.4794 11.484 18.7499 12.8625 18.7499 14.25M18.7499 14.25V9M18.7499 14.25V15M11.9999 1.5L14.8544 3.2115L18.1709 3.5055L19.4759 6.5685L21.9854 8.7555L21.2399 12L21.9854 15.2445L19.4744 17.4315L18.1709 20.4945L14.8559 20.787L11.9999 22.5L9.1439 20.787L5.8289 20.4945L4.5239 17.4315L2.0144 15.2445L2.7599 12L2.0144 8.7555L4.5239 6.5685L5.8289 3.5055L9.1439 3.2115L11.9999 1.5Z" stroke="#591A0E" stroke-width="1.5"/>
</g>
</g>
<defs>
<clipPath id="clip0_114_441">
<rect width="24" height="24" fill="white"/>
</clipPath>
</defs>
</svg>
