<svg width="24" height="24" viewBox="0 0 24 24" fill="none" xmlns="http://www.w3.org/2000/svg">
<path d="M3 10.1992C3 6.42822 3 4.54222 4.172 3.37122C5.344 2.20022 7.229 2.19922 11 2.19922H13C16.771 2.19922 18.657 2.19922 19.828 3.37122C20.999 4.54322 21 6.42822 21 10.1992V14.1992C21 17.9702 21 19.8562 19.828 21.0272C18.656 22.1982 16.771 22.1992 13 22.1992H11C7.229 22.1992 5.343 22.1992 4.172 21.0272C3.001 19.8552 3 17.9702 3 14.1992V10.1992Z" stroke="#591A0E" stroke-width="1.5"/>
<path d="M12 6.19922V8.19922M12 8.19922V10.1992M12 8.19922H10M12 8.19922H14M8 14.1992H16M9 18.1992H15" stroke="#591A0E" stroke-width="1.5" stroke-linecap="round"/>
</svg>
