<svg width="28" height="28" viewBox="0 0 28 28" fill="none" xmlns="http://www.w3.org/2000/svg">
<path d="M14 4.66675C15.295 4.66675 16.3333 5.70508 16.3333 7.00008C16.3333 8.29508 15.295 9.33341 14 9.33341C12.705 9.33341 11.6667 8.29508 11.6667 7.00008C11.6667 5.70508 12.7167 4.66675 14 4.66675ZM24.5 18.6667V16.3334C21.8867 16.3334 19.6467 15.2134 17.9667 13.2067L16.4033 11.3401C16.1863 11.077 15.9136 10.8652 15.605 10.7199C15.2964 10.5747 14.9594 10.4996 14.6183 10.5001H13.4167C12.705 10.5001 12.0517 10.8034 11.6083 11.3401L10.045 13.2067C8.35333 15.2134 6.11333 16.3334 3.5 16.3334V18.6667C6.73167 18.6667 9.555 17.3017 11.6667 14.8751V17.5001L7.14 19.3084C6.35833 19.6234 5.83333 20.4167 5.83333 21.2451C5.83333 22.4001 6.76667 23.3334 7.92167 23.3334H10.5V22.7501C10.5 21.9765 10.8073 21.2347 11.3543 20.6877C11.9013 20.1407 12.6431 19.8334 13.4167 19.8334H16.9167C17.2433 19.8334 17.5 20.0901 17.5 20.4167C17.5 20.7434 17.2433 21.0001 16.9167 21.0001H13.4167C12.4483 21.0001 11.6667 21.7817 11.6667 22.7501V23.3334H20.0783C21.2333 23.3334 22.1667 22.4001 22.1667 21.2451C22.1667 20.4167 21.6417 19.6234 20.86 19.3084L16.3333 17.5001V14.8751C18.445 17.3017 21.2683 18.6667 24.5 18.6667Z" fill="#591A0E"/>
</svg>
