<svg width="24" height="24" viewBox="0 0 24 24" fill="none" xmlns="http://www.w3.org/2000/svg">
<g clip-path="url(#clip0_145_721)">
<path d="M2 9.88806C2 7.06006 2 5.64506 2.879 4.76706C3.757 3.88806 5.172 3.88806 8 3.88806H16C18.828 3.88806 20.243 3.88806 21.121 4.76706C22 5.64506 22 7.06006 22 9.88806V13.8881C22 16.7161 22 18.1311 21.121 19.0091C20.243 19.8881 18.828 19.8881 16 19.8881H8C5.172 19.8881 3.757 19.8881 2.879 19.0091C2 18.1311 2 16.7161 2 13.8881V9.88806Z" stroke="#591A0E" stroke-width="1.5" stroke-linecap="round" stroke-linejoin="round"/>
<path d="M12 12.8881C12 9.87806 6 5.24806 6 9.79206C6 11.3581 6.763 12.8881 8.5 12.8881H12ZM12 12.8881C12 9.87806 18 5.24806 18 9.79206C18 11.3581 17.237 12.8881 15.5 12.8881H12ZM12 12.8881L15 15.8881M12 12.8881L9 15.8881M12 3.88806V19.8881M2 12.8881H22" stroke="#591A0E" stroke-width="1.5" stroke-linecap="round" stroke-linejoin="round"/>
</g>
<defs>
<clipPath id="clip0_145_721">
<rect width="24" height="24" fill="white"/>
</clipPath>
</defs>
</svg>
