<svg width="33" height="19" viewBox="0 0 33 19" fill="none" xmlns="http://www.w3.org/2000/svg">
<path d="M21 9.875L17.95 8.745C17.69 7.595 17.04 6.935 17.04 6.935C16.6508 6.54526 16.1887 6.23606 15.6799 6.0251C15.1711 5.81414 14.6258 5.70555 14.075 5.70555C13.5242 5.70555 12.9789 5.81414 12.4701 6.0251C11.9613 6.23606 11.4992 6.54526 11.11 6.935L9.63 8.415L3 1.375C2 5.375 3 9.375 5.45 12.595L0 17.875C0 17.875 8.89 19.875 14.07 15.825C16.83 13.665 17.45 12.405 17.84 11.075L21 9.875ZM15.71 10.095C15.32 10.485 14.68 10.485 14.29 10.095C14.1973 10.0025 14.1237 9.8926 14.0736 9.77162C14.0234 9.65065 13.9976 9.52097 13.9976 9.39C13.9976 9.25903 14.0234 9.12935 14.0736 9.00838C14.1237 8.8874 14.1973 8.77751 14.29 8.685C14.68 8.295 15.32 8.295 15.71 8.685C16.1 9.075 16.1 9.705 15.71 10.095Z" fill="#591A0E"/>
<path d="M32.3749 0V6.77083C32.3749 7.27364 32.1752 7.75585 31.8196 8.11139C31.4641 8.46693 30.9819 8.66667 30.4791 8.66667C29.9763 8.66667 29.4941 8.46693 29.1385 8.11139C28.783 7.75585 28.5833 7.27364 28.5833 6.77083C28.5833 6.26803 28.783 5.78581 29.1385 5.43028C29.4941 5.07474 29.9763 4.875 30.4791 4.875C30.7716 4.875 31.0478 4.94 31.2916 5.05917V1.87958L25.8749 3.03333V7.85417C25.8749 8.35697 25.6752 8.83919 25.3196 9.19472C24.9641 9.55026 24.4819 9.75 23.9791 9.75C23.4763 9.75 22.9941 9.55026 22.6385 9.19472C22.283 8.83919 22.0833 8.35697 22.0833 7.85417C22.0833 7.35136 22.283 6.86915 22.6385 6.51361C22.9941 6.15807 23.4763 5.95833 23.9791 5.95833C24.2716 5.95833 24.5478 6.02333 24.7916 6.1425V1.625L32.3749 0Z" fill="#591A0E"/>
</svg>
