<svg width="21" height="27" viewBox="0 0 21 27" fill="none" xmlns="http://www.w3.org/2000/svg">
<path d="M9.04004 2.2998C11.0698 3.07603 12.4556 4.5661 13.3574 6.06836C13.706 6.64912 13.9848 7.23984 14.2061 7.80273C14.1561 7.56552 14.0936 7.34064 14.0283 7.1543L15.252 6.36133C19.5452 10.4191 20.3569 14.2025 19.3789 17.3291C18.4292 20.3649 15.8555 22.5574 13.8193 23.6592L11.9697 24.6602L12.7686 22.7148C13.9423 19.8559 13.7621 17.5782 13.0684 15.8184C12.5782 14.5752 11.819 13.5595 11.042 12.7686C10.7834 14.1029 10.3624 15.4016 9.78516 16.6328C9.38689 17.4812 8.22006 17.1702 8.14551 16.3467C8.00014 16.6466 7.8409 16.94 7.66699 17.2246L7.63281 17.2793C7.38403 17.6864 7.18413 18.1224 7.03711 18.5771C6.71595 19.5707 6.69386 20.6383 6.97363 21.6445L7.29492 22.7988L7.87207 24.876L6.12988 23.6064L5.0625 22.8271C3.44668 21.6488 2.23607 19.9935 1.59863 18.0918C1.11832 16.6586 1.13505 15.1033 1.64551 13.6807L3.43457 8.69434L3.90625 7.37793L4.74219 8.5C5.1759 9.08252 5.41903 9.75341 5.55469 10.3604C6.42127 9.18257 7.06673 7.97621 7.49316 6.8584C8.10184 5.26284 8.23247 3.94571 8.04395 3.17871L7.70215 1.78809L9.04004 2.2998Z" stroke="#591A0E" stroke-width="1.5"/>
</svg>
