<svg width="29" height="24" viewBox="0 0 29 24" fill="none" xmlns="http://www.w3.org/2000/svg">
<path d="M25.3636 1V2.45455M21.7272 1V2.45455M18.0909 1V2.45455M18.8181 10.4545H21.7272M18.8181 6.81818H24.6363M15.5454 11.1818V6.09091C15.5454 4.03418 15.5454 3.00509 16.1847 2.36655C16.8232 1.72727 17.8523 1.72727 19.909 1.72727H23.5454C25.6021 1.72727 26.6312 1.72727 27.2698 2.36655C27.909 3.00509 27.909 4.03418 27.909 6.09091V8.27273C27.909 11.7011 27.909 13.4153 26.8436 14.48C25.7796 15.5455 24.0654 15.5455 20.6363 15.5455H19.909C17.8523 15.5455 16.8232 15.5455 16.1847 14.9062C15.5454 14.2676 15.5454 13.2385 15.5454 11.1818Z" stroke="#591A0E" stroke-width="1.63636" stroke-linecap="round" stroke-linejoin="round"/>
<path d="M27.9091 10.0909C27.9091 10.3297 27.8621 10.5661 27.7707 10.7867C27.6794 11.0073 27.5454 11.2078 27.3766 11.3766C27.2078 11.5454 27.0073 11.6794 26.7867 11.7707C26.5661 11.8621 26.3297 11.9091 26.091 11.9091C25.7273 11.9091 25.2997 11.8459 24.947 11.9404C24.7928 11.9817 24.6522 12.0628 24.5394 12.1757C24.4265 12.2886 24.3453 12.4291 24.304 12.5833C24.2095 12.936 24.2728 13.3644 24.2728 13.7273C24.2728 14.2095 24.0812 14.672 23.7402 15.013C23.3993 15.3539 22.9368 15.5455 22.4546 15.5455" stroke="#591A0E" stroke-width="1.63636" stroke-linecap="round" stroke-linejoin="round"/>
<path d="M9.36366 10.4545C9.36366 10.9367 9.1721 11.3992 8.83113 11.7402C8.49015 12.0812 8.02769 12.2727 7.54548 12.2727C7.06326 12.2727 6.6008 12.0812 6.25983 11.7402C5.91885 11.3992 5.72729 10.9367 5.72729 10.4545C5.72729 9.97232 5.91885 9.50986 6.25983 9.16889C6.6008 8.82791 7.06326 8.63635 7.54548 8.63635C8.02769 8.63635 8.49015 8.82791 8.83113 9.16889C9.1721 9.50986 9.36366 9.97232 9.36366 10.4545Z" stroke="#591A0E" stroke-width="1.63636"/>
<path d="M14.0909 19.5455L13.2487 19.2618C13.0835 19.206 12.9265 19.1285 12.7818 19.0313L12.7084 18.9811C12.4619 18.8143 12.2601 18.5895 12.1207 18.3265C11.9813 18.0636 11.9087 17.7704 11.9091 17.4727C11.9091 15.7004 10.6407 14.1876 8.91055 13.896L8.26327 13.7869C7.90909 13.7273 7.18182 13.7273 6.82764 13.7869L6.17964 13.896C4.44945 14.1876 3.18182 15.7004 3.18182 17.4727C3.18223 17.7704 3.10956 18.0636 2.9702 18.3265C2.83085 18.5895 2.62905 18.8143 2.38255 18.9811L2.30982 19.0313C2.16388 19.1287 2.008 19.2056 1.84218 19.2618L1 19.5455" stroke="#591A0E" stroke-width="1.63636" stroke-linecap="round" stroke-linejoin="round"/>
<path d="M5.72725 18.8181L5.05452 19.7148C4.94761 19.8574 4.89452 19.9294 4.83343 19.9919C4.68437 20.1478 4.50253 20.2685 4.30107 20.3454C4.21961 20.3767 4.13379 20.3985 3.95925 20.4421L2.65525 20.7679C2.36554 20.8409 2.11245 21.0171 1.94358 21.2636C1.7747 21.51 1.70167 21.8097 1.73821 22.1062C1.77475 22.4027 1.91834 22.6756 2.14199 22.8737C2.36565 23.0718 2.65395 23.1813 2.9527 23.1818H3.44943C4.69234 23.1818 5.90034 22.7788 6.89452 22.0334L8.2727 20.9999M9.36361 18.8181L9.89234 19.5228C10.1418 19.8559 10.2669 20.0225 10.4291 20.1454C10.4776 20.1822 10.5285 20.2162 10.5818 20.2472C10.7578 20.349 10.96 20.3992 11.3636 20.5003L12.4356 20.7679C12.7253 20.8409 12.9784 21.0171 13.1473 21.2636C13.3162 21.51 13.3892 21.8097 13.3527 22.1062C13.3161 22.4027 13.1725 22.6756 12.9489 22.8737C12.7252 23.0718 12.4369 23.1813 12.1382 23.1818H11.4567C11.0472 23.1818 10.8429 23.1818 10.64 23.1701C10.0412 23.1366 9.44877 23.0291 8.87634 22.8501C8.68216 22.7898 8.49089 22.7185 8.10834 22.5745L6.81816 22.0908" stroke="#591A0E" stroke-width="1.63636" stroke-linecap="round" stroke-linejoin="round"/>
</svg>
