<svg width="24" height="24" viewBox="0 0 24 24" fill="none" xmlns="http://www.w3.org/2000/svg">
<path d="M13.3895 3.28684C13.4572 3.22335 13.5387 3.17643 13.6276 3.14978C13.7165 3.12313 13.8104 3.11747 13.9019 3.13324C18.1115 3.86164 21.5939 7.53364 21.5939 12.0012C21.5939 14.3882 20.6457 16.6774 18.9579 18.3652C17.27 20.053 14.9808 21.0012 12.5939 21.0012C9.55789 21.0012 6.54589 19.4928 4.90789 17.1444C4.84732 17.0578 4.81069 16.9568 4.80172 16.8515C4.79276 16.7461 4.81176 16.6403 4.85683 16.5447C4.90189 16.4491 4.9714 16.3671 5.05834 16.307C5.14527 16.2469 5.24654 16.2108 5.35189 16.2024C7.16989 16.0572 9.35989 15.084 10.9799 13.0932C12.5903 11.1144 13.6703 8.09044 13.2035 3.78844C13.1936 3.69614 13.2052 3.6028 13.2375 3.51576C13.2698 3.42873 13.3218 3.35036 13.3895 3.28684ZM4.19989 12C4.67728 12 5.13512 11.8104 5.47269 11.4728C5.81025 11.1353 5.99989 10.6774 5.99989 10.2V5.86804L9.59989 4.96804V7.30204C9.23969 7.17469 8.8483 7.16525 8.48238 7.2751C8.11645 7.38494 7.79497 7.60837 7.56445 7.91305C7.33393 8.21773 7.20634 8.58785 7.20013 8.96986C7.19393 9.35187 7.30943 9.72594 7.52993 10.0379C7.75043 10.3499 8.06448 10.5837 8.42665 10.7054C8.78881 10.8271 9.1803 10.8303 9.54445 10.7147C9.9086 10.5992 10.2265 10.3707 10.4522 10.0624C10.6779 9.75418 10.7997 9.3821 10.7999 9.00004V4.20004C10.8001 4.1088 10.7794 4.01873 10.7395 3.93667C10.6996 3.85461 10.6415 3.78274 10.5697 3.7265C10.4978 3.67027 10.4141 3.63117 10.3249 3.61216C10.2356 3.59316 10.1432 3.59476 10.0547 3.61684L5.25469 4.81684C5.12464 4.84928 5.00918 4.92434 4.92675 5.03004C4.84432 5.13574 4.79966 5.266 4.79989 5.40004V8.50324C4.55272 8.41573 4.28942 8.38328 4.02839 8.40816C3.76737 8.43304 3.51494 8.51464 3.28874 8.64726C3.06255 8.77989 2.86806 8.96032 2.71888 9.17595C2.56971 9.39159 2.46944 9.63721 2.4251 9.89564C2.38075 10.1541 2.39341 10.4191 2.46217 10.6721C2.53093 10.9251 2.65415 11.1601 2.82319 11.3605C2.99223 11.5609 3.20303 11.722 3.44083 11.8325C3.67863 11.943 3.93769 12.0001 4.19989 12Z" fill="#591A0E"/>
</svg>
