<svg width="20" height="20" viewBox="0 0 20 20" fill="none" xmlns="http://www.w3.org/2000/svg">
<path d="M15 6C14.7167 6 14.4793 5.904 14.288 5.712C14.0967 5.52 14.0007 5.28267 14 5C13.9993 4.71733 14.0953 4.48 14.288 4.288C14.4807 4.096 14.718 4 15 4C15.282 4 15.5197 4.096 15.713 4.288C15.9063 4.48 16.002 4.71733 16 5C15.998 5.28267 15.902 5.52033 15.712 5.713C15.522 5.90567 15.2847 6.00133 15 6ZM15.975 12H8.025C7.80833 12 7.65433 11.9083 7.563 11.725C7.47167 11.5417 7.49233 11.3667 7.625 11.2L9.3 9C9.4 8.86667 9.53333 8.8 9.7 8.8C9.86667 8.8 10 8.86667 10.1 9L11.25 10.5L13.15 8.025C13.25 7.89167 13.3833 7.825 13.55 7.825C13.7167 7.825 13.85 7.89167 13.95 8.025L16.375 11.2C16.5083 11.3667 16.5293 11.5417 16.438 11.725C16.3467 11.9083 16.1923 12 15.975 12ZM2 20C1.45 20 0.979333 19.8043 0.588 19.413C0.196667 19.0217 0.000666667 18.5507 0 18V5C0 4.71667 0.0960001 4.47933 0.288 4.288C0.48 4.09667 0.717333 4.00067 1 4C1.28267 3.99933 1.52033 4.09533 1.713 4.288C1.90567 4.48067 2.00133 4.718 2 5V18H15C15.2833 18 15.521 18.096 15.713 18.288C15.905 18.48 16.0007 18.7173 16 19C15.9993 19.2827 15.9033 19.5203 15.712 19.713C15.5207 19.9057 15.2833 20.0013 15 20H2ZM4 2C4 1.45 4.196 0.979333 4.588 0.588C4.98 0.196667 5.45067 0.000666667 6 0H10C10.2833 0 10.521 0.0960001 10.713 0.288C10.905 0.48 11.0007 0.717333 11 1C10.9993 1.28267 10.9033 1.52033 10.712 1.713C10.5207 1.90567 10.2833 2.00133 10 2H6V6.375C6 6.65833 5.904 6.896 5.712 7.088C5.52 7.28 5.28267 7.37567 5 7.375C4.71733 7.37433 4.48 7.27833 4.288 7.087C4.096 6.89567 4 6.65867 4 6.376V2ZM6 16C5.45 16 4.97933 15.8043 4.588 15.413C4.19667 15.0217 4.00067 14.5507 4 14V10.375C4 10.0917 4.096 9.85433 4.288 9.663C4.48 9.47167 4.71733 9.37567 5 9.375C5.28267 9.37433 5.52033 9.47033 5.713 9.663C5.90567 9.85567 6.00133 10.093 6 10.375V14H10C10.2833 14 10.521 14.096 10.713 14.288C10.905 14.48 11.0007 14.7173 11 15C10.9993 15.2827 10.9033 15.5203 10.712 15.713C10.5207 15.9057 10.2833 16.0013 10 16H6ZM18 16H14C13.7167 16 13.4793 15.904 13.288 15.712C13.0967 15.52 13.0007 15.2827 13 15C12.9993 14.7173 13.0953 14.48 13.288 14.288C13.4807 14.096 13.718 14 14 14H18V10.375C18 10.0917 18.096 9.85433 18.288 9.663C18.48 9.47167 18.7173 9.37567 19 9.375C19.2827 9.37433 19.5203 9.47033 19.713 9.663C19.9057 9.85567 20.0013 10.093 20 10.375V14C20 14.55 19.8043 15.021 19.413 15.413C19.0217 15.805 18.5507 16.0007 18 16ZM20 2V6.375C20 6.65833 19.904 6.896 19.712 7.088C19.52 7.28 19.2827 7.37567 19 7.375C18.7173 7.37433 18.48 7.27833 18.288 7.087C18.096 6.89567 18 6.65867 18 6.376V2H14C13.7167 2 13.4793 1.904 13.288 1.712C13.0967 1.52 13.0007 1.28267 13 1C12.9993 0.717333 13.0953 0.48 13.288 0.288C13.4807 0.0960001 13.718 0 14 0H18C18.55 0 19.021 0.196 19.413 0.588C19.805 0.98 20.0007 1.45067 20 2Z" fill="#591A0E"/>
</svg>
